<?xml version="1.0" encoding="iso-8859-1"?>
<!-- Generator: Adobe Illustrator 19.0.0, SVG Export Plug-In . SVG Version: 6.00 Build 0)  -->
<svg version="1.1" id="Layer_1" xmlns="http://www.w3.org/2000/svg" xmlns:xlink="http://www.w3.org/1999/xlink" x="0px" y="0px"
	 viewBox="0 0 489.999 489.999" style="enable-background:new 0 0 489.999 489.999;" xml:space="preserve">
<g>
	<path style="fill:#71D1D1;" d="M275.624,30.625h53.593c4.228,0,7.656,3.428,7.656,7.656V61.25h22.969
		c4.228,0,7.656,3.428,7.656,7.656v329.219c0,0.273-0.016,0.543-0.044,0.808c-0.005,0.051-0.017,0.101-0.023,0.152
		c-0.027,0.216-0.059,0.431-0.104,0.642c-0.012,0.057-0.03,0.112-0.044,0.169c-0.048,0.202-0.1,0.402-0.163,0.597
		c-0.021,0.065-0.048,0.128-0.07,0.193c-0.065,0.182-0.133,0.362-0.21,0.537c-0.033,0.076-0.072,0.149-0.108,0.224
		c-0.076,0.158-0.155,0.314-0.242,0.466c-0.048,0.084-0.099,0.165-0.15,0.248c-0.085,0.137-0.173,0.271-0.266,0.401
		c-0.061,0.086-0.125,0.171-0.19,0.254c-0.094,0.121-0.191,0.238-0.292,0.353c-0.073,0.083-0.146,0.165-0.222,0.244
		c-0.107,0.112-0.218,0.218-0.332,0.323c-0.053,0.049-0.1,0.103-0.155,0.151l-61.25,53.593c-0.03,0.026-0.062,0.048-0.092,0.074
		c-0.083,0.07-0.169,0.136-0.255,0.203c-0.101,0.078-0.201,0.155-0.305,0.228c-0.095,0.067-0.193,0.13-0.291,0.192
		c-0.1,0.063-0.2,0.125-0.303,0.184c-0.107,0.061-0.216,0.119-0.327,0.176c-0.099,0.05-0.198,0.098-0.299,0.144
		c-0.117,0.054-0.236,0.105-0.357,0.153c-0.1,0.04-0.202,0.076-0.303,0.111c-0.123,0.043-0.245,0.084-0.37,0.121
		c-0.11,0.032-0.221,0.059-0.333,0.086c-0.12,0.029-0.238,0.059-0.36,0.082c-0.135,0.026-0.273,0.044-0.41,0.063
		c-0.101,0.014-0.2,0.031-0.302,0.041c-0.243,0.023-0.488,0.037-0.734,0.037h-22.969v15.313h114.844V15.313H275.624V30.625z"/>
	<rect x="184.27" y="459.375" style="fill:#A0E0E0;" width="91.354" height="15.313"/>
	<rect x="184.27" y="15.313" style="fill:#A0E0E0;" width="91.354" height="15.313"/>
	<path style="fill:#D0F0F0;" d="M130.155,459.375c-4.228,0-7.656-3.428-7.656-7.656V68.906c0-4.228,3.428-7.656,7.656-7.656h22.969
		V38.281c0-4.228,3.428-7.656,7.656-7.656h23.49V15.313H99.53v459.375h84.74v-15.313H130.155z"/>
	<path style="fill:#FCC062;" d="M329.218,130.156c4.228,0,7.656,3.428,7.656,7.656c0,4.228-3.428,7.656-7.656,7.656h-22.969v30.625
		h22.969c4.228,0,7.656,3.428,7.656,7.656c0,4.228-3.428,7.656-7.656,7.656h-22.969v30.625h22.969c4.228,0,7.656,3.428,7.656,7.656
		c0,4.228-3.428,7.656-7.656,7.656h-22.969v30.625h22.969c4.228,0,7.656,3.428,7.656,7.656s-3.428,7.656-7.656,7.656h-22.969v30.625
		h22.969c4.228,0,7.656,3.428,7.656,7.656s-3.428,7.656-7.656,7.656h-22.969v30.625l0,0h22.968c4.228,0,7.656,3.428,7.656,7.656
		s-3.428,7.656-7.656,7.656h-22.968l0,0v15.313h45.937V76.562h-15.313v22.969c0,4.228-3.428,7.656-7.656,7.656h-22.968v22.969
		L329.218,130.156L329.218,130.156z"/>
	<path style="fill:#FDD089;" d="M306.249,375.156c-4.228,0-7.656-3.428-7.656-7.656s3.428-7.656,7.656-7.656v-30.625H160.78
		c-4.228,0-7.656-3.428-7.656-7.656s3.428-7.656,7.656-7.656h145.469v-30.625h-15.312c-4.228,0-7.656-3.428-7.656-7.656
		s3.428-7.656,7.656-7.656h15.312v-30.625H222.03c-4.228,0-7.656-3.428-7.656-7.656c0-4.228,3.428-7.656,7.656-7.656h84.219v-30.625
		H283.28c-4.228,0-7.656-3.428-7.656-7.656c0-4.228,3.428-7.656,7.656-7.656h22.969v-30.625H160.78
		c-4.228,0-7.656-3.428-7.656-7.656c0-4.228,3.428-7.656,7.656-7.656h145.469V107.19H160.78c-4.228,0-7.656-3.428-7.656-7.656
		V76.562h-15.313v367.5h153.125v-45.937c0-4.228,3.428-7.656,7.656-7.656h7.656L306.249,375.156L306.249,375.156z M160.78,176.093
		h91.875c4.228,0,7.656,3.428,7.656,7.656c0,4.228-3.428,7.656-7.656,7.656H160.78c-4.228,0-7.656-3.428-7.656-7.656
		C153.124,179.522,156.552,176.093,160.78,176.093z M160.78,222.031h30.625c4.228,0,7.656,3.428,7.656,7.656
		c0,4.228-3.428,7.656-7.656,7.656H160.78c-4.228,0-7.656-3.428-7.656-7.656S156.552,222.031,160.78,222.031z M160.78,267.969
		h99.531c4.228,0,7.656,3.428,7.656,7.656s-3.428,7.656-7.656,7.656H160.78c-4.228,0-7.656-3.428-7.656-7.656
		S156.552,267.969,160.78,267.969z M222.03,421.094h-61.25c-4.228,0-7.656-3.428-7.656-7.656s3.428-7.656,7.656-7.656h61.25
		c4.228,0,7.656,3.428,7.656,7.656C229.686,417.666,226.258,421.094,222.03,421.094z M275.624,375.156H160.78
		c-4.228,0-7.656-3.428-7.656-7.656s3.428-7.656,7.656-7.656h114.844c4.228,0,7.656,3.428,7.656,7.656
		S279.852,375.156,275.624,375.156z"/>
	<polygon style="fill:#FBB03B;" points="306.249,434.846 339.466,405.781 306.249,405.781 	"/>
	<path style="fill:#FBB03B;" d="M260.312,45.938V61.25h30.625c4.228,0,7.656,3.428,7.656,7.656s-3.428,7.656-7.656,7.656h-30.625
		v15.313h61.25V45.938H260.312z"/>
	<path style="fill:#FCC062;" d="M199.061,76.562c-4.228,0-7.656-3.428-7.656-7.656s3.428-7.656,7.656-7.656h61.25V45.938h-91.875
		v45.937h91.875V76.562H199.061z"/>
	<path d="M398.124,0H91.874c-4.228,0-7.656,3.428-7.656,7.656v474.687c0,4.228,3.428,7.656,7.656,7.656h1.043h91.354h91.354h122.5
		c4.228,0,7.656-3.428,7.656-7.656V7.656C405.78,3.428,402.352,0,398.124,0z M390.468,474.687H275.624H184.27H99.53V15.313h84.74
		h91.354h114.844V474.687z"/>
	<path d="M160.78,30.625c-4.228,0-7.656,3.428-7.656,7.656V61.25h-22.969c-4.228,0-7.656,3.428-7.656,7.656v382.813
		c0,4.228,3.428,7.656,7.656,7.656h54.115h91.354h22.969c0.246,0,0.491-0.014,0.734-0.037c0.102-0.01,0.201-0.027,0.302-0.041
		c0.137-0.019,0.274-0.036,0.41-0.063c0.122-0.023,0.241-0.054,0.36-0.082c0.111-0.027,0.223-0.054,0.333-0.086
		c0.125-0.036,0.248-0.078,0.37-0.121c0.102-0.035,0.203-0.071,0.303-0.111c0.121-0.048,0.239-0.099,0.357-0.153
		c0.101-0.046,0.2-0.094,0.299-0.144c0.11-0.056,0.219-0.114,0.327-0.176c0.103-0.059,0.203-0.121,0.303-0.184
		c0.098-0.063,0.196-0.125,0.291-0.192c0.104-0.073,0.204-0.15,0.305-0.228c0.086-0.067,0.172-0.133,0.255-0.203
		c0.03-0.026,0.063-0.048,0.092-0.074l61.25-53.593c0.054-0.048,0.102-0.102,0.155-0.151c0.113-0.105,0.225-0.212,0.332-0.323
		c0.076-0.08,0.15-0.162,0.222-0.244c0.101-0.115,0.198-0.232,0.292-0.353c0.065-0.084,0.129-0.168,0.19-0.254
		c0.093-0.131,0.181-0.265,0.266-0.401c0.051-0.082,0.102-0.164,0.15-0.248c0.087-0.152,0.165-0.308,0.242-0.466
		c0.036-0.075,0.074-0.148,0.108-0.224c0.078-0.175,0.146-0.355,0.21-0.537c0.023-0.065,0.049-0.127,0.07-0.193
		c0.064-0.195,0.116-0.395,0.163-0.597c0.014-0.057,0.031-0.112,0.044-0.169c0.045-0.21,0.077-0.425,0.104-0.642
		c0.007-0.051,0.018-0.101,0.023-0.152c0.028-0.266,0.044-0.535,0.044-0.808V68.906c0-4.228-3.428-7.656-7.656-7.656h-22.969V38.281
		c0-4.228-3.428-7.656-7.656-7.656h-53.593h-91.354C184.271,30.625,160.78,30.625,160.78,30.625z M290.937,398.125v45.937H137.812
		v-367.5h15.313v22.969c0,4.228,3.428,7.656,7.656,7.656h145.468h22.969c4.228,0,7.656-3.428,7.656-7.656V76.562h15.313v313.906
		h-45.938h-7.656C294.365,390.469,290.937,393.897,290.937,398.125z M306.249,434.846v-29.065h33.217L306.249,434.846z
		 M321.561,91.875h-61.25h-91.875V45.938h91.875h61.25V91.875z"/>
	<path style="fill:#FFFFFF;" d="M191.405,68.906c0,4.228,3.428,7.656,7.656,7.656h61.25h30.625c4.228,0,7.656-3.428,7.656-7.656
		s-3.428-7.656-7.656-7.656h-30.625h-61.25C194.833,61.25,191.405,64.678,191.405,68.906z"/>
	<path d="M336.874,137.813c0-4.228-3.428-7.656-7.656-7.656h-22.969H160.78c-4.228,0-7.656,3.428-7.656,7.656
		c0,4.228,3.428,7.656,7.656,7.656h145.469h22.969C333.446,145.469,336.874,142.041,336.874,137.813z"/>
	<path d="M160.78,191.406h91.875c4.228,0,7.656-3.428,7.656-7.656c0-4.228-3.428-7.656-7.656-7.656H160.78
		c-4.228,0-7.656,3.428-7.656,7.656C153.124,187.978,156.552,191.406,160.78,191.406z"/>
	<path d="M160.78,237.344h30.625c4.228,0,7.656-3.428,7.656-7.656c0-4.228-3.428-7.656-7.656-7.656H160.78
		c-4.228,0-7.656,3.428-7.656,7.656S156.552,237.344,160.78,237.344z"/>
	<path d="M336.874,275.625c0-4.228-3.428-7.656-7.656-7.656h-22.969h-15.312c-4.228,0-7.656,3.428-7.656,7.656
		s3.428,7.656,7.656,7.656h15.312h22.969C333.446,283.281,336.874,279.853,336.874,275.625z"/>
	<path d="M160.78,283.281h99.531c4.228,0,7.656-3.428,7.656-7.656s-3.428-7.656-7.656-7.656H160.78
		c-4.228,0-7.656,3.428-7.656,7.656S156.552,283.281,160.78,283.281z"/>
	<path d="M336.874,321.562c0-4.228-3.428-7.656-7.656-7.656h-22.969H160.78c-4.228,0-7.656,3.428-7.656,7.656
		s3.428,7.656,7.656,7.656h145.469h22.969C333.446,329.219,336.874,325.791,336.874,321.562z"/>
	<path d="M275.624,359.844H160.78c-4.228,0-7.656,3.428-7.656,7.656s3.428,7.656,7.656,7.656h114.844
		c4.228,0,7.656-3.428,7.656-7.656S279.852,359.844,275.624,359.844z"/>
	<path d="M222.03,405.781h-61.25c-4.228,0-7.656,3.428-7.656,7.656s3.428,7.656,7.656,7.656h61.25c4.228,0,7.656-3.428,7.656-7.656
		C229.686,409.209,226.258,405.781,222.03,405.781z"/>
	<path d="M336.874,183.75c0-4.228-3.428-7.656-7.656-7.656h-22.969H283.28c-4.228,0-7.656,3.428-7.656,7.656
		c0,4.228,3.428,7.656,7.656,7.656h22.969h22.969C333.446,191.406,336.874,187.978,336.874,183.75z"/>
	<path d="M336.874,229.687c0-4.228-3.428-7.656-7.656-7.656h-22.969H222.03c-4.228,0-7.656,3.428-7.656,7.656
		c0,4.228,3.428,7.656,7.656,7.656h84.219h22.969C333.446,237.344,336.874,233.916,336.874,229.687z"/>
	<path d="M329.218,375.156c4.228,0,7.656-3.428,7.656-7.656s-3.428-7.656-7.656-7.656h-22.969l0,0c-4.228,0-7.656,3.428-7.656,7.656
		s3.428,7.656,7.656,7.656l0,0H329.218z"/>
</g>
<g>
</g>
<g>
</g>
<g>
</g>
<g>
</g>
<g>
</g>
<g>
</g>
<g>
</g>
<g>
</g>
<g>
</g>
<g>
</g>
<g>
</g>
<g>
</g>
<g>
</g>
<g>
</g>
<g>
</g>
</svg>
